<svg xmlns="http://www.w3.org/2000/svg" viewBox="0 0 1200 630" role="img" aria-labelledby="title desc">
  <title id="title">Projetos digitais de Guilherme Rocha</title><desc id="desc">Cartão social da seleção de projetos, com os nomes dos produtos em ordem profissional.</desc>
  <defs><linearGradient id="background" x1="0" y1="0" x2="1" y2="1"><stop stop-color="#f7fbfd"/><stop offset=".62" stop-color="#e7f1f7"/><stop offset="1" stop-color="#d5edf4"/></linearGradient><radialGradient id="glow" cx="82%" cy="18%" r="72%"><stop stop-color="#82d7ff" stop-opacity=".55"/><stop offset="1" stop-color="#82d7ff" stop-opacity="0"/></radialGradient></defs>
  <rect width="1200" height="630" fill="url(#background)"/><rect width="1200" height="630" fill="url(#glow)"/>
  <g transform="translate(70 58)"><rect width="64" height="64" rx="19" fill="#b7f269"/><text x="32" y="43" text-anchor="middle" font-family="Segoe UI,Arial,sans-serif" font-size="24" font-weight="900" fill="#061927">GR</text><text x="88" y="27" font-family="Segoe UI,Arial,sans-serif" font-size="23" font-weight="760" fill="#061927">Guilherme Rocha</text><text x="88" y="52" font-family="Segoe UI,Arial,sans-serif" font-size="13" font-weight="800" letter-spacing="2.2" fill="#006f9c">PORTFÓLIO DE PROJETOS</text></g>
  <text x="70" y="232" font-family="Segoe UI,Arial,sans-serif" font-size="68" font-weight="730" letter-spacing="-3.6" fill="#061927">Produtos digitais construídos</text><text x="70" y="314" font-family="Segoe UI,Arial,sans-serif" font-size="68" font-weight="730" letter-spacing="-3.6" fill="#061927">para problemas reais.</text>
  <g font-family="Segoe UI,Arial,sans-serif" font-size="20" font-weight="700"><rect x="70" y="376" width="174" height="56" rx="28" fill="#052f58"/><text x="157" y="411" text-anchor="middle" fill="#ffffff">Club<tspan fill="#64d4d1">AL</tspan></text><rect x="256" y="376" width="142" height="56" rx="28" fill="#ffffff" stroke="#9ab6c5"/><text x="327" y="411" text-anchor="middle" fill="#16364b">Sites</text><rect x="410" y="376" width="246" height="56" rx="28" fill="#ffffff" stroke="#9ab6c5"/><text x="533" y="411" text-anchor="middle" fill="#16364b">Codex Checkpoint</text><rect x="668" y="376" width="150" height="56" rx="28" fill="#ffffff" stroke="#9ab6c5"/><text x="743" y="411" text-anchor="middle" fill="#16364b">NEXUS</text><rect x="830" y="376" width="116" height="56" rx="28" fill="#ffffff" stroke="#9ab6c5"/><text x="888" y="411" text-anchor="middle" fill="#16364b">C7</text><rect x="70" y="448" width="190" height="56" rx="28" fill="#ffffff" stroke="#9ab6c5"/><text x="165" y="483" text-anchor="middle" fill="#16364b">Local First</text><rect x="272" y="448" width="210" height="56" rx="28" fill="#ffffff" stroke="#9ab6c5"/><text x="377" y="483" text-anchor="middle" fill="#16364b">Maeve Roscaern</text></g>
  <text x="70" y="568" font-family="Segoe UI,Arial,sans-serif" font-size="18" font-weight="650" fill="#36566a">Contexto · papel · decisões · evidência · estado e limites</text>
</svg>
